# xmcd
# 
# Track frame offsets:
#     150
#     11032
#     23373
#     32483
#     42313
#     53993
#     67097
#     77995
#     95475
#     109836
#     124304
#     135773
#     145979
#     156498
#     167848
#     177491
#     189075
#     203854
#     216081
#     231307
#     246117
# 
# Disc length: 3476
# 
# Revision: 0
# Processed by: cddbd v1.5.2PL0 Copyright (c) Steve Scherf et al.
# Submitted via: fre:ac v1.0.17
# 
DISCID=280d9215
DTITLE=Various Artist - Festival Country
DYEAR=2014
DGENRE=Country
TTITLE0=Roger Miller - King of the road
TTITLE1=Lynn Anderson - Stand by your hand
TTITLE2=Frankle Laine - Rawhide
TTITLE3=Johnny Cash - Ballad of a teenage queen
TTITLE4=Orion - Crazy little thing called love
TTITLE5=Kenny Rogers - Ruby don't take your love to town
TTITLE6=Dave Dudley - Truk drivin' son-of-a-gun
TTITLE7=Desperado and Jony De Boer - One more last chance
TTITLE8=Rodeo Girls - Do you wanna go to buffalo
TTITLE9=The big crowd - Cotton eye Joe
TTITLE10=Patsy Cline - Walkin' after minight
TTITLE11=Dolly Parton - Release me
TTITLE12=Leroy Van Dick - Walk on by
TTITLE13=Don Gibson - Oh lonesome me
TTITLE14=Willy Nelson - Let's pretend
TTITLE15=Richard Bailey - Green acres theme
TTITLE16=Elizabeth Cook - Sometimes is takes balls to a woman
TTITLE17=Dude Watson and His lone stars - Truckin' man
TTITLE18=Country dance kings - Achy breaky heart
TTITLE19=Tommy Townsend - Hillbily dirty dance
TTITLE20=Eric Weissberg and Steve Mandell - Dueling banjos
EXTD=
EXTT0=
EXTT1=
EXTT2=
EXTT3=
EXTT4=
EXTT5=
EXTT6=
EXTT7=
EXTT8=
EXTT9=
EXTT10=
EXTT11=
EXTT12=
EXTT13=
EXTT14=
EXTT15=
EXTT16=
EXTT17=
EXTT18=
EXTT19=
EXTT20=
PLAYORDER=
